# xmcd CD database file
#
# Track frame offsets:
#	150
#	20015
#	37395
#	50562
#	64655
#	79348
#	91019
#	103949
#	129416
#	141741
#
# Disc length: 2190 seconds
#
# Revision: 0
# Processed by: cddbd v1.5.2PL0 Copyright (c) Steve Scherf et al.
# Submitted via: CDex 1.70beta3
#
DISCID=94088c0a
DTITLE=ANIME THAT JAZZ - イブニング!
DYEAR=1900
DGENRE=Jazz
TTITLE0=残酷な天使のテーゼ
TTITLE1=ルパン三世のテーマ
TTITLE2=キューティーハニー
TTITLE3=創聖のアクエリオン
TTITLE4=銀河鉄道999
TTITLE5=ルージュの伝言
TTITLE6=世界が終るまでは…
TTITLE7=ニブンノイチ
TTITLE8=ロマンティックあげるよ
TTITLE9=魂のルフラン
EXTD=
EXTT0=
EXTT1=
EXTT2=
EXTT3=
EXTT4=
EXTT5=
EXTT6=
EXTT7=
EXTT8=
EXTT9=
PLAYORDER=
